<svg xmlns="http://www.w3.org/2000/svg" viewBox="0 0 800 540"><style>svg{color-scheme:light;background:#fff}text{font-family:Inter,"PingFang SC",system-ui,sans-serif;fill:#34343C;font-size:18px}.small{font-size:14px}.tiny{font-size:12px}.op-label{font-size:18px;font-weight:650;fill:#fff;dominant-baseline:middle}.data-label{paint-order:stroke;stroke:#fff;stroke-width:2.5px;stroke-linejoin:round}.grid-label{font-size:14px;fill:var(--tensor-color);font-weight:400}.grid-detail{font-size:12px;fill:var(--tensor-color);font-weight:400}.edge-label{font-size:12px;fill:#61616B;paint-order:stroke;stroke:#fff;stroke-width:5px}.hit[data-key="task"]>.outline{fill:#F0EDFF;stroke:#685CF0;stroke-width:1.3}.hit[data-key="task"]>text{fill:#574BC9}.hit[data-key="buffer"]>.outline{fill:#F7F2E9;stroke:#A38A61;stroke-width:1.3}.hit[data-key="buffer"]>text{fill:#796344}.hit[data-key="buffer"]>path{stroke:#A38A61;stroke-opacity:.6}.hit[data-key="callable"]>.outline{stroke:#8EAED0;stroke-width:1.3}.hit[data-key="callable"]>text{fill:#587A9D}.hit[data-key="callable"]>path{stroke:#D3DFEA}
</style><defs><linearGradient id="op-purple" x1="0" y1="0" x2="1" y2="1"><stop stop-color="#4D3BC9"/><stop offset="1" stop-color="#3D2DC0"/></linearGradient><marker id="arrow" viewBox="0 0 14 14" refX="12" refY="7" markerWidth="10" markerHeight="10" orient="auto"><path d="M8 7 H12" stroke="#FFFFFF" stroke-width="2.5"/><path d="M3 2 L8 7 L3 12 M7 2 L12 7 L7 12" stroke="#85858F" stroke-width="1.4" stroke-linejoin="miter" fill="none"/></marker><marker id="open" viewBox="0 0 10 10" refX="9" refY="5" markerWidth="7" markerHeight="7" orient="auto"><path d="M1 1 L9 5 L1 9" stroke="#85858F" stroke-width="1.5" fill="none"/></marker><marker id="diamond" viewBox="0 0 12 12" refX="11" refY="6" markerWidth="9" markerHeight="9" orient="auto"><path d="M1 6 L6 1 L11 6 L6 11Z" fill="#FFFFFF" stroke="#aaa"/></marker><marker id="circle" viewBox="0 0 10 10" refX="8" refY="5" markerWidth="7" markerHeight="7" orient="auto"><circle cx="5" cy="5" r="3" fill="#FFFFFF" stroke="#aaa"/></marker></defs><g class="hit" tabindex="0" role="button" aria-label="Callable · 可调用函数（图解统称）" data-key="callable" data-layer="program"><rect class="outline" x="230" y="150" width="340" height="290" rx="5" fill="none" stroke="#6b6b6b"/><path d="M230 181 H570" stroke="#444"/><text x="244" y="172" class="small" text-anchor="start">Callable · projection</text></g><g class="hit" tabindex="0" role="button" aria-label="数据依赖 →" data-key="data" data-layer=""><path class="outline edge" d="M150 130 L150 210 L330 210 L330 250" fill="none" stroke="#85858F" stroke-width="1.7" stroke-linejoin="round"  marker-end="url(#arrow)"/><path d="M150 130 L150 210 L330 210 L330 250" fill="none" stroke="transparent" stroke-width="12"/></g><g class="hit" tabindex="0" role="button" aria-label="数据依赖 →" data-key="data" data-layer=""><path class="outline edge" d="M650 130 L650 210 L470 210 L470 250" fill="none" stroke="#85858F" stroke-width="1.7" stroke-linejoin="round"  marker-end="url(#arrow)"/><path d="M650 130 L650 210 L470 210 L470 250" fill="none" stroke="transparent" stroke-width="12"/></g><g class="hit" tabindex="0" role="button" aria-label="X · 输入 / 中间值" data-key="x" data-layer="data"><rect class="outline" data-node-box="grid" x="90" y="70" width="120" height="60" rx="6" fill="#F5F9EF" stroke="#8EA86D" stroke-width="1.2"/><rect data-cell="1" x="102.5" y="80.5" width="11" height="11" fill="#648A39" opacity=".16"/><rect data-cell="1" x="116.5" y="80.5" width="11" height="11" fill="#648A39" opacity=".16"/><rect data-cell="1" x="130.5" y="80.5" width="11" height="11" fill="#648A39" opacity=".16"/><rect data-cell="1" x="144.5" y="80.5" width="11" height="11" fill="#648A39" opacity=".16"/><rect data-cell="1" x="158.5" y="80.5" width="11" height="11" fill="#648A39" opacity=".16"/><rect data-cell="1" x="172.5" y="80.5" width="11" height="11" fill="#648A39" opacity=".16"/><rect data-cell="1" x="186.5" y="80.5" width="11" height="11" fill="#648A39" opacity=".16"/><rect data-cell="1" x="102.5" y="94.5" width="11" height="11" fill="#648A39" opacity=".16"/><rect data-cell="1" x="116.5" y="94.5" width="11" height="11" fill="#648A39" opacity=".16"/><rect data-cell="1" x="130.5" y="94.5" width="11" height="11" fill="#648A39" opacity=".16"/><rect data-cell="1" x="144.5" y="94.5" width="11" height="11" fill="#648A39" opacity=".16"/><rect data-cell="1" x="158.5" y="94.5" width="11" height="11" fill="#648A39" opacity=".16"/><rect data-cell="1" x="172.5" y="94.5" width="11" height="11" fill="#648A39" opacity=".16"/><rect data-cell="1" x="186.5" y="94.5" width="11" height="11" fill="#648A39" opacity=".16"/><rect data-cell="1" x="102.5" y="108.5" width="11" height="11" fill="#648A39" opacity=".16"/><rect data-cell="1" x="116.5" y="108.5" width="11" height="11" fill="#648A39" opacity=".16"/><rect data-cell="1" x="130.5" y="108.5" width="11" height="11" fill="#648A39" opacity=".16"/><rect data-cell="1" x="144.5" y="108.5" width="11" height="11" fill="#648A39" opacity=".16"/><rect data-cell="1" x="158.5" y="108.5" width="11" height="11" fill="#648A39" opacity=".16"/><rect data-cell="1" x="172.5" y="108.5" width="11" height="11" fill="#648A39" opacity=".16"/><rect data-cell="1" x="186.5" y="108.5" width="11" height="11" fill="#648A39" opacity=".16"/><g class="data-label" style="--tensor-color:#648A39"><text x="150" y="96" class="grid-label" text-anchor="middle">X</text><text x="150" y="115" class="grid-detail" text-anchor="middle">输入</text></g></g><g class="hit" tabindex="0" role="button" aria-label="W · 模型参数" data-key="w" data-layer="data"><rect class="outline" data-node-box="grid" x="590" y="70" width="120" height="60" rx="6" fill="#F6F2FB" stroke="#A58CC7" stroke-width="1.2"/><rect data-cell="1" x="602.5" y="80.5" width="11" height="11" fill="#896CB5" opacity=".16"/><rect data-cell="1" x="616.5" y="80.5" width="11" height="11" fill="#896CB5" opacity=".16"/><rect data-cell="1" x="630.5" y="80.5" width="11" height="11" fill="#896CB5" opacity=".16"/><rect data-cell="1" x="644.5" y="80.5" width="11" height="11" fill="#896CB5" opacity=".16"/><rect data-cell="1" x="658.5" y="80.5" width="11" height="11" fill="#896CB5" opacity=".16"/><rect data-cell="1" x="672.5" y="80.5" width="11" height="11" fill="#896CB5" opacity=".16"/><rect data-cell="1" x="686.5" y="80.5" width="11" height="11" fill="#896CB5" opacity=".16"/><rect data-cell="1" x="602.5" y="94.5" width="11" height="11" fill="#896CB5" opacity=".16"/><rect data-cell="1" x="616.5" y="94.5" width="11" height="11" fill="#896CB5" opacity=".16"/><rect data-cell="1" x="630.5" y="94.5" width="11" height="11" fill="#896CB5" opacity=".16"/><rect data-cell="1" x="644.5" y="94.5" width="11" height="11" fill="#896CB5" opacity=".16"/><rect data-cell="1" x="658.5" y="94.5" width="11" height="11" fill="#896CB5" opacity=".16"/><rect data-cell="1" x="672.5" y="94.5" width="11" height="11" fill="#896CB5" opacity=".16"/><rect data-cell="1" x="686.5" y="94.5" width="11" height="11" fill="#896CB5" opacity=".16"/><rect data-cell="1" x="602.5" y="108.5" width="11" height="11" fill="#896CB5" opacity=".16"/><rect data-cell="1" x="616.5" y="108.5" width="11" height="11" fill="#896CB5" opacity=".16"/><rect data-cell="1" x="630.5" y="108.5" width="11" height="11" fill="#896CB5" opacity=".16"/><rect data-cell="1" x="644.5" y="108.5" width="11" height="11" fill="#896CB5" opacity=".16"/><rect data-cell="1" x="658.5" y="108.5" width="11" height="11" fill="#896CB5" opacity=".16"/><rect data-cell="1" x="672.5" y="108.5" width="11" height="11" fill="#896CB5" opacity=".16"/><rect data-cell="1" x="686.5" y="108.5" width="11" height="11" fill="#896CB5" opacity=".16"/><g class="data-label" style="--tensor-color:#896CB5"><text x="650" y="96" class="grid-label" text-anchor="middle">W</text><text x="650" y="115" class="grid-detail" text-anchor="middle">权重</text></g></g><g class="hit" tabindex="0" role="button" aria-label="IR 操作 · OP" data-key="op" data-layer="data"><rect class="op outline" x="270" y="250" width="260" height="48" rx="24" fill="#685CF0" stroke="#685CF0" stroke-width="1"/><circle cx="295" cy="274" r="12" fill="#211391"/><text x="295" y="275" text-anchor="middle" dominant-baseline="middle" style="font-size:15px;font-style:italic;fill:#A58BFF">ƒₓ</text><text x="414" y="274" class="op-label" text-anchor="middle">MatMul</text></g><g class="hit" tabindex="0" role="button" aria-label="数据依赖 →" data-key="data" data-layer=""><path class="outline edge" d="M400 298 L400 350" fill="none" stroke="#85858F" stroke-width="1.7" stroke-linejoin="round"  marker-end="url(#arrow)"/><path d="M400 298 L400 350" fill="none" stroke="transparent" stroke-width="12"/></g><g class="hit" tabindex="0" role="button" aria-label="Y · 输出值" data-key="y" data-layer="data"><rect class="outline" data-node-box="grid" x="340" y="350" width="120" height="60" rx="6" fill="#F5F9EF" stroke="#8EA86D" stroke-width="1.2"/><rect data-cell="1" x="352.5" y="360.5" width="11" height="11" fill="#648A39" opacity=".16"/><rect data-cell="1" x="366.5" y="360.5" width="11" height="11" fill="#648A39" opacity=".16"/><rect data-cell="1" x="380.5" y="360.5" width="11" height="11" fill="#648A39" opacity=".16"/><rect data-cell="1" x="394.5" y="360.5" width="11" height="11" fill="#648A39" opacity=".16"/><rect data-cell="1" x="408.5" y="360.5" width="11" height="11" fill="#648A39" opacity=".16"/><rect data-cell="1" x="422.5" y="360.5" width="11" height="11" fill="#648A39" opacity=".16"/><rect data-cell="1" x="436.5" y="360.5" width="11" height="11" fill="#648A39" opacity=".16"/><rect data-cell="1" x="352.5" y="374.5" width="11" height="11" fill="#648A39" opacity=".16"/><rect data-cell="1" x="366.5" y="374.5" width="11" height="11" fill="#648A39" opacity=".16"/><rect data-cell="1" x="380.5" y="374.5" width="11" height="11" fill="#648A39" opacity=".16"/><rect data-cell="1" x="394.5" y="374.5" width="11" height="11" fill="#648A39" opacity=".16"/><rect data-cell="1" x="408.5" y="374.5" width="11" height="11" fill="#648A39" opacity=".16"/><rect data-cell="1" x="422.5" y="374.5" width="11" height="11" fill="#648A39" opacity=".16"/><rect data-cell="1" x="436.5" y="374.5" width="11" height="11" fill="#648A39" opacity=".16"/><rect data-cell="1" x="352.5" y="388.5" width="11" height="11" fill="#648A39" opacity=".16"/><rect data-cell="1" x="366.5" y="388.5" width="11" height="11" fill="#648A39" opacity=".16"/><rect data-cell="1" x="380.5" y="388.5" width="11" height="11" fill="#648A39" opacity=".16"/><rect data-cell="1" x="394.5" y="388.5" width="11" height="11" fill="#648A39" opacity=".16"/><rect data-cell="1" x="408.5" y="388.5" width="11" height="11" fill="#648A39" opacity=".16"/><rect data-cell="1" x="422.5" y="388.5" width="11" height="11" fill="#648A39" opacity=".16"/><rect data-cell="1" x="436.5" y="388.5" width="11" height="11" fill="#648A39" opacity=".16"/><g class="data-label" style="--tensor-color:#648A39"><text x="400" y="376" class="grid-label" text-anchor="middle">C tile</text><text x="400" y="395" class="grid-detail" text-anchor="middle">计算结果</text></g></g><g class="hit" tabindex="0" role="button" aria-label="存储绑定 ─○" data-key="binding" data-layer=""><path class="outline edge" d="M340 380 L150 380 L150 445" fill="none" stroke="#aaa" stroke-width="1.7" stroke-linejoin="round"  marker-end="url(#circle)"/><path d="M340 380 L150 380 L150 445" fill="none" stroke="transparent" stroke-width="12"/><text x="240" y="367" class="edge-label" text-anchor="middle">存于</text></g><g class="hit" tabindex="0" role="button" aria-label="MemRef · 内存引用" data-key="buffer" data-layer="storage"><rect class="outline" x="60" y="445" width="180" height="53" fill="#242424" stroke="#999"/><path d="M69 450 V493 M231 450 V493" stroke="#666"/><text x="150" y="477" class="small" text-anchor="middle">MemRef · C</text></g><g class="hit" tabindex="0" role="button" aria-label="Task · 一次 Kernel 调度" data-key="task" data-layer="program"><rect class="outline" x="600" y="445" width="170" height="65" rx="8" fill="#242424" stroke="#999"/><text x="612" y="464" class="tiny" text-anchor="start">TASK</text><text x="612" y="490" class="small" text-anchor="start">T0 · 调用</text></g><g class="hit" tabindex="0" role="button" aria-label="调用 / 引用 ⇢" data-key="call" data-layer=""><path class="outline edge" d="M685 445 L685 310 L570 310" fill="none" stroke="#85858F" stroke-width="1.7" stroke-linejoin="round" stroke-dasharray="10 6" marker-end="url(#open)"/><path d="M685 445 L685 310 L570 310" fill="none" stroke="transparent" stroke-width="12"/><text x="625" y="299" class="edge-label" text-anchor="middle">调用</text></g></svg>